<?xml version="1.0" encoding="utf-8"?>
<!-- Generator: Adobe Illustrator 21.1.0, SVG Export Plug-In . SVG Version: 6.00 Build 0)  -->
<svg version="1.1" id="Layer_1" xmlns="http://www.w3.org/2000/svg" xmlns:xlink="http://www.w3.org/1999/xlink" x="0px" y="0px"
	 viewBox="0 0 5456.2 628.3" style="enable-background:new 0 0 5456.2 628.3;" xml:space="preserve">
<style type="text/css">
	.st0{fill:#EE387D;}
	.st1{fill:#FFFFFF;}
</style>
<g>
	<path class="st0" d="M676.6,9.7h134.2v609.9H676.6V9.7z"/>
	<path class="st0" d="M1018.1,133.4H832.5V9.7h505.3v123.7h-185.6v486.2h-134.2V133.4z"/>
	<path class="st0" d="M1359.6,9.7h134.2v609.9h-134.2V9.7z"/>
	<path class="st0" d="M1517.3,530.7l79.3-95c54.9,45.3,112.4,74.1,182.1,74.1c54.9,0,88-21.8,88-57.5v-1.7
		c0-34-20.9-51.4-122.9-77.5c-122.8-31.4-202.1-65.3-202.1-186.4v-1.7C1541.7,74.2,1630.6,1,1755.2,1c88.9,0,164.7,27.9,226.5,77.5
		L1912,179.6c-54-37.5-107.2-60.1-158.6-60.1S1675,143,1675,172.6v1.7c0,40.1,26.1,53.1,131.6,80.2c123.7,32.2,193.4,76.7,193.4,183
		v1.7c0,121.1-92.3,189.1-223.9,189.1C1683.7,628.3,1590.5,596.1,1517.3,530.7z"/>
</g>
<g>
	
		<ellipse transform="matrix(2.575726e-03 -1 1 2.575726e-03 -177.4439 831.8828)" class="st0" cx="328.3" cy="504.9" rx="101.6" ry="101.6"/>
	<g>
		
			<ellipse transform="matrix(2.575726e-03 -1 1 2.575726e-03 446.7177 661.0972)" class="st0" cx="554.8" cy="106.6" rx="101.6" ry="101.6"/>
		
			<ellipse transform="matrix(2.575726e-03 -1 1 2.575726e-03 -3.9629 206.5978)" class="st0" cx="101.6" cy="105.3" rx="101.6" ry="101.6"/>
	</g>
	<g>
		
			<ellipse transform="matrix(2.575726e-03 -1 1 2.575726e-03 -100.4885 516.7791)" class="st0" cx="208.8" cy="308.8" rx="101.6" ry="101.6"/>
		
			<ellipse transform="matrix(2.575726e-03 -1 1 2.575726e-03 132.1213 751.1932)" class="st0" cx="442.6" cy="309.4" rx="101.6" ry="101.6"/>
	</g>
</g>
<g>
	<path class="st1" d="M2020,10.4h488.6v142.3h-322v92.8h291.6v132.8h-291.6v96.3h326.3v143.2H2020V10.4z"/>
	<path class="st1" d="M2530.4,10.4h187.5l138,384.4l138.8-384.4h184l-246.5,611.8H2776L2530.4,10.4z"/>
	<path class="st1" d="M3216.1,10.4h488.6v142.3h-322v92.8h291.6v132.8h-291.6v96.3H3709v143.2h-492.9V10.4z"/>
	<path class="st1" d="M3774.2,10.4h157.1l249.9,321.1V10.4h166.6v607.5h-146.7l-260.3-333.2v333.2h-166.6V10.4z"/>
	<path class="st1" d="M4582.2,157.9h-181.4V10.4h531.9v147.5h-182.2v459.9h-168.4V157.9z"/>
	<path class="st1" d="M4925.9,527.6l93.7-111.9c60.7,47.7,126.7,72.9,197,72.9c46,0,70.3-15.6,70.3-41.7v-1.7c0-26-20-39.1-103.3-59
		c-129.3-29.5-229.1-65.9-229.1-190v-1.7C4954.6,81.6,5044,0,5189.7,0c103.3,0,184,27.8,249.9,80.7l-84.2,118.9
		c-55.5-39.9-116.3-59.9-170.1-59.9c-40.8,0-60.8,16.5-60.8,39v1.7c0,27.8,20.8,39.9,105.9,59c138.8,30.4,225.6,75.5,225.6,189.2
		v1.7c0,124.1-98.1,197.9-245.6,197.9C5103,628.3,5001.4,594.4,4925.9,527.6z"/>
</g>
</svg>
