<?xml version="1.0" standalone="no"?>
<!DOCTYPE svg PUBLIC "-//W3C//DTD SVG 20010904//EN"
 "http://www.w3.org/TR/2001/REC-SVG-20010904/DTD/svg10.dtd">
<svg version="1.0" xmlns="http://www.w3.org/2000/svg"
 width="2736.000000pt" height="2736.000000pt" viewBox="0 0 2736.000000 2736.000000"
 preserveAspectRatio="xMidYMid meet">
<metadata>
Created by potrace 1.11, written by Peter Selinger 2001-2013
</metadata>
<g transform="translate(0.000000,2736.000000) scale(0.100000,-0.100000)"
fill="#000000" stroke="none">
<path d="M4057 26235 c-1 -2 -49 -5 -107 -9 -58 -3 -121 -8 -140 -10 -19 -3
-60 -7 -91 -11 -31 -3 -65 -7 -75 -9 -11 -2 -41 -7 -69 -10 -27 -4 -69 -11
-93 -17 -23 -5 -59 -12 -80 -15 -20 -3 -55 -10 -77 -16 -22 -5 -51 -12 -63
-14 -13 -3 -49 -12 -80 -20 -68 -18 -85 -22 -113 -29 -12 -2 -95 -29 -184 -59
-436 -148 -833 -358 -1200 -634 -55 -42 -105 -81 -111 -87 -6 -5 -42 -35 -80
-65 -111 -90 -421 -406 -530 -540 -232 -287 -397 -546 -543 -850 -130 -272
-248 -602 -306 -860 -16 -68 -54 -264 -59 -300 -17 -117 -26 -188 -30 -225
-27 -233 -27 -696 -1 -900 2 -16 7 -52 10 -80 18 -148 47 -310 80 -446 9 -35
18 -72 20 -81 24 -106 105 -358 156 -487 138 -347 305 -651 533 -966 184 -253
445 -531 691 -735 50 -41 92 -77 95 -80 13 -15 206 -153 289 -209 180 -120
440 -261 651 -354 95 -42 266 -107 280 -107 9 0 20 -4 25 -9 8 -7 197 -68 265
-86 45 -11 148 -36 165 -40 61 -14 131 -29 140 -30 9 -1 103 -17 115 -20 8 -2
104 -16 135 -20 297 -38 653 -46 930 -21 28 3 75 7 105 10 58 5 98 11 190 26
30 5 69 12 85 14 36 6 221 45 250 52 11 3 30 7 42 10 94 19 430 131 558 184
17 7 35 14 40 15 67 15 616 307 637 339 4 6 8 7 8 2 0 -5 10 0 23 11 12 11 51
39 87 63 309 206 648 519 897 826 142 176 243 324 396 579 9 17 55 105 101
196 119 235 230 522 291 749 1 3 7 25 14 50 17 59 68 284 75 335 4 22 8 47 11
55 2 8 6 35 9 60 15 123 18 146 21 160 2 8 7 58 10 110 4 52 8 113 10 135 5
53 5 416 0 480 -2 28 -7 91 -10 140 -4 50 -11 112 -16 138 -5 26 -8 51 -7 55
1 4 -1 25 -5 47 -4 22 -10 58 -13 80 -18 124 -87 416 -135 563 -179 558 -455
1057 -824 1488 -177 207 -432 448 -650 614 -22 16 -49 37 -60 46 -34 27 -327
220 -385 253 -111 64 -458 231 -572 275 -209 82 -557 185 -708 210 -19 3 -48
8 -65 11 -106 20 -174 30 -263 40 -26 3 -63 8 -82 10 -106 13 -601 29 -613 20z"/>
<path d="M23067 26184 c-1 -1 -69 -4 -152 -8 -82 -3 -161 -8 -175 -10 -14 -3
-57 -7 -95 -10 -39 -4 -80 -8 -90 -10 -21 -4 -76 -13 -139 -22 -42 -6 -67 -11
-106 -19 -25 -5 -54 -11 -100 -20 -21 -4 -58 -13 -200 -49 -275 -70 -683 -235
-940 -380 -36 -21 -85 -49 -110 -63 -255 -145 -583 -400 -830 -645 -128 -126
-347 -377 -400 -458 -8 -13 -24 -35 -36 -49 -47 -59 -244 -364 -244 -378 0 -3
-8 -17 -19 -31 -54 -77 -223 -440 -289 -622 -89 -246 -174 -567 -197 -743 -2
-16 -6 -40 -9 -55 -3 -15 -8 -45 -11 -67 -2 -22 -6 -56 -9 -75 -36 -257 -41
-675 -10 -965 14 -137 55 -386 80 -487 2 -10 6 -26 8 -35 47 -202 140 -494
209 -653 9 -19 23 -53 32 -75 100 -234 296 -578 439 -771 17 -23 40 -54 51
-70 132 -183 395 -469 585 -636 471 -413 991 -703 1590 -887 77 -23 290 -78
338 -86 18 -3 63 -12 100 -19 37 -8 90 -17 117 -20 28 -4 57 -9 65 -11 8 -2
46 -6 83 -10 37 -3 78 -8 89 -10 120 -24 707 -23 848 0 14 2 51 7 83 10 95 9
178 22 352 57 133 26 118 22 246 58 739 204 1361 565 1898 1101 364 365 691
844 879 1289 13 30 28 64 33 75 103 234 235 696 264 932 2 12 6 34 9 50 5 26
10 62 21 153 7 57 16 160 20 235 5 83 5 463 0 520 -2 22 -7 78 -10 124 -4 47
-8 92 -10 101 -2 9 -6 43 -10 75 -10 88 -13 106 -45 265 -25 121 -49 225 -64
275 -2 6 -6 24 -11 40 -14 57 -47 161 -82 260 -177 503 -450 970 -808 1384
-66 77 -365 371 -445 438 -412 345 -866 603 -1360 774 -107 37 -322 101 -380
113 -14 3 -80 17 -147 31 -67 14 -139 27 -160 30 -21 4 -63 10 -93 15 -30 5
-86 12 -125 15 -38 4 -81 8 -95 11 -38 6 -427 22 -433 18z"/>
<path d="M8478 17754 c-2 -1 -46 -5 -98 -8 -52 -4 -108 -9 -125 -11 -16 -2
-52 -7 -80 -10 -117 -14 -253 -38 -375 -65 -52 -12 -103 -23 -112 -25 -54 -12
-226 -61 -313 -90 -483 -160 -914 -395 -1325 -724 -176 -140 -461 -421 -602
-591 -388 -470 -655 -979 -823 -1570 -8 -28 -54 -215 -59 -240 -2 -14 -13 -70
-24 -125 -11 -55 -23 -122 -26 -150 -4 -27 -9 -63 -11 -80 -35 -238 -41 -806
-10 -997 2 -12 6 -48 10 -79 3 -31 8 -67 10 -80 3 -13 7 -41 10 -64 3 -22 8
-47 10 -55 2 -8 6 -33 10 -55 9 -65 63 -292 96 -403 45 -153 121 -364 187
-515 12 -26 22 -51 23 -55 3 -13 149 -292 174 -332 14 -22 25 -42 25 -45 0
-13 173 -273 259 -388 356 -479 794 -864 1326 -1168 78 -44 275 -142 385 -192
176 -79 476 -178 705 -233 17 -4 35 -8 40 -10 6 -1 44 -9 85 -18 41 -8 84 -17
95 -19 11 -3 43 -8 70 -11 28 -4 75 -11 105 -16 57 -10 103 -15 255 -27 176
-15 706 -7 803 12 10 2 43 6 73 10 54 6 231 36 324 54 28 5 97 21 155 36 58
14 112 28 120 30 77 18 316 101 475 165 106 42 362 168 483 237 175 101 442
283 558 382 17 14 55 46 84 71 232 195 522 507 683 735 59 83 165 241 181 270
9 17 28 48 41 70 43 69 152 276 195 370 58 124 184 451 195 505 1 3 11 37 23
75 23 77 86 334 98 405 4 25 8 47 9 50 1 3 5 28 10 55 4 28 9 58 11 69 2 10 6
44 9 75 4 31 8 67 10 81 14 98 20 219 20 445 0 349 -14 520 -66 795 -6 30 -13
69 -16 85 -13 80 -97 385 -138 504 -236 686 -631 1286 -1165 1771 -69 63 -88
79 -145 128 -11 10 -67 54 -125 98 -567 437 -1270 733 -1970 829 -25 3 -56 8
-70 10 -14 2 -54 6 -90 10 -36 3 -87 9 -115 12 -47 5 -552 12 -557 7z"/>
<path d="M18427 17734 c-1 -1 -78 -4 -172 -8 -93 -3 -181 -8 -195 -10 -14 -3
-55 -7 -92 -11 -37 -3 -77 -8 -90 -10 -13 -2 -39 -6 -58 -9 -86 -13 -120 -19
-190 -32 -41 -8 -86 -17 -100 -20 -119 -23 -506 -140 -595 -179 -16 -8 -61
-26 -100 -40 -82 -32 -383 -178 -470 -229 -33 -19 -73 -43 -90 -52 -98 -55
-369 -243 -470 -325 -236 -194 -456 -413 -665 -665 -182 -219 -416 -599 -539
-874 -65 -143 -76 -170 -98 -230 -12 -30 -29 -75 -38 -100 -23 -62 -59 -171
-85 -260 -12 -41 -25 -87 -30 -102 -5 -16 -7 -28 -5 -28 3 0 0 -12 -5 -26 -6
-14 -19 -69 -30 -123 -32 -153 -31 -145 -45 -241 -4 -25 -9 -53 -10 -62 -2 -9
-7 -48 -10 -85 -4 -37 -8 -75 -10 -83 -10 -37 -19 -243 -19 -430 0 -223 9
-387 29 -520 2 -14 7 -52 11 -85 3 -33 8 -62 9 -65 2 -3 6 -30 10 -60 4 -30 9
-58 11 -61 2 -3 6 -21 9 -40 23 -129 75 -327 128 -489 17 -52 32 -97 32 -100
1 -3 9 -22 18 -44 9 -21 17 -41 17 -45 0 -12 91 -225 144 -336 241 -506 659
-1044 1079 -1390 27 -22 54 -45 60 -51 7 -6 62 -48 122 -94 488 -371 1095
-648 1680 -766 11 -2 43 -8 70 -14 71 -15 83 -17 145 -25 30 -4 64 -9 75 -11
11 -1 45 -5 75 -9 30 -3 69 -8 85 -11 156 -23 665 -23 837 0 18 3 62 8 98 11
36 4 74 9 85 10 11 2 40 7 65 10 25 4 101 18 169 31 823 165 1568 565 2170
1165 56 55 208 221 236 257 11 14 36 44 55 67 320 387 604 916 751 1400 75
246 127 483 153 690 3 22 8 65 12 95 14 113 26 327 26 470 1 105 -11 367 -17
400 -2 9 -6 53 -10 96 -7 76 -9 89 -20 144 -2 14 -7 45 -10 70 -4 25 -10 63
-15 85 -5 22 -12 56 -15 75 -27 160 -144 540 -230 750 -72 177 -182 394 -289
573 -45 76 -168 261 -200 302 -8 11 -50 66 -93 121 -112 146 -170 211 -333
374 -175 176 -207 204 -346 315 -60 48 -118 94 -128 102 -11 9 -80 57 -155
108 -122 82 -186 122 -301 188 -40 23 -291 152 -302 156 -9 2 -90 37 -133 56
-165 74 -566 201 -720 229 -16 3 -88 16 -160 30 -71 13 -152 27 -180 30 -27 3
-68 8 -90 11 -92 11 -147 15 -280 21 -77 3 -159 6 -183 8 -24 1 -44 1 -45 0z"/>
<path d="M13458 9585 c-2 -1 -46 -6 -98 -10 -52 -3 -113 -8 -135 -11 -57 -7
-185 -24 -220 -30 -112 -19 -202 -36 -256 -49 -35 -9 -72 -18 -81 -20 -259
-60 -586 -179 -858 -313 -186 -91 -527 -298 -636 -385 -307 -245 -340 -274
-498 -433 -322 -325 -562 -658 -771 -1069 -118 -232 -167 -351 -255 -615 -52
-159 -125 -458 -145 -595 -3 -23 -7 -50 -9 -62 -3 -12 -7 -50 -11 -84 -4 -35
-8 -66 -10 -69 -2 -3 -7 -53 -10 -110 -4 -58 -9 -125 -11 -150 -5 -62 -4 -426
0 -475 2 -22 7 -78 11 -125 19 -248 79 -562 156 -830 79 -272 241 -654 368
-868 17 -29 31 -55 31 -57 0 -18 231 -358 319 -470 121 -155 209 -253 361
-405 172 -171 475 -425 562 -471 13 -7 25 -15 28 -18 8 -9 92 -66 125 -85 17
-9 42 -24 57 -34 136 -88 463 -252 628 -317 52 -20 104 -41 115 -45 61 -26
379 -123 445 -136 14 -3 50 -11 80 -19 61 -16 77 -19 205 -41 137 -23 136 -23
195 -30 30 -3 66 -7 80 -10 160 -26 763 -26 932 1 13 2 48 6 78 9 30 4 82 11
115 17 33 5 69 12 80 14 11 1 38 6 60 10 173 30 492 119 655 182 438 169 762
345 1077 584 228 174 370 301 558 500 120 128 164 180 301 359 79 103 299 440
288 440 -4 0 -1 8 7 18 44 55 182 344 264 552 67 171 160 482 180 599 3 19 8
37 10 41 2 3 13 62 25 131 26 153 27 161 35 229 4 30 9 66 10 80 19 145 25
537 12 735 -7 114 -24 279 -32 305 -2 8 -7 40 -10 70 -4 30 -17 107 -30 171
-107 528 -313 1031 -604 1474 -63 97 -208 297 -247 342 -10 11 -33 38 -50 60
-164 200 -439 465 -664 639 -77 60 -249 184 -255 184 -2 0 -42 24 -87 54 -244
159 -651 348 -958 445 -194 61 -494 132 -619 146 -30 3 -57 7 -60 9 -3 2 -37
7 -76 11 -38 3 -83 8 -100 11 -81 11 -181 16 -407 19 -136 1 -248 2 -250 0z"/>
</g>
</svg>
